<svg width="764" height="524" viewBox="0 0 764 524" fill="none" xmlns="http://www.w3.org/2000/svg">
<path d="M448 523.239L617.615 425.785L719.316 233.231L672.956 488.803L448 523.239Z" fill="url(#paint0_radial_4_27)"/>
<path d="M452.476 523.239L622.091 425.785L723.792 233.231L677.431 488.803L452.476 523.239Z" fill="#3D298F"/>
<path d="M621.201 425.874L676.697 488.583L452.475 523.072L621.201 425.874Z" fill="url(#paint1_linear_4_27)" fill-opacity="0.64"/>
<path d="M621.172 426.275L677.592 489.031L723.69 234.167L621.172 426.275Z" fill="url(#paint2_linear_4_27)" fill-opacity="0.64"/>
<path d="M292.642 66.55L160.506 129.595L73.6226 267.482L122.805 79.4091L292.642 66.55Z" fill="url(#paint3_radial_4_27)"/>
<path d="M293 61.8705L160.864 124.915L73.9806 262.803L123.163 74.7296L293 61.8705Z" fill="#3D298F"/>
<path d="M161.182 124.738L123.348 74.7753L292.64 61.8345L161.182 124.738Z" fill="url(#paint4_linear_4_27)" fill-opacity="0.64"/>
<path d="M160.823 125.047L122.988 75.084L74.0425 262.644L160.823 125.047Z" fill="url(#paint5_linear_4_27)" fill-opacity="0.64"/>
<defs>
<radialGradient id="paint0_radial_4_27" cx="0" cy="0" r="1" gradientUnits="userSpaceOnUse" gradientTransform="translate(595.037 381.396) rotate(-74.5009) scale(176.021 103.787)">
<stop stop-color="#7B7B7B" stop-opacity="0.82"/>
<stop offset="1" stop-color="#3A71FF" stop-opacity="0"/>
</radialGradient>
<linearGradient id="paint1_linear_4_27" x1="467.245" y1="515.01" x2="666.857" y2="487.284" gradientUnits="userSpaceOnUse">
<stop offset="0.333333"/>
<stop offset="1" stop-color="#071A4A" stop-opacity="0"/>
</linearGradient>
<linearGradient id="paint2_linear_4_27" x1="725.927" y1="234.614" x2="681.318" y2="473.389" gradientUnits="userSpaceOnUse">
<stop stop-color="#3956A2"/>
<stop offset="0.541667" stop-color="#326BFF" stop-opacity="0"/>
</linearGradient>
<radialGradient id="paint3_radial_4_27" cx="0" cy="0" r="1" gradientUnits="userSpaceOnUse" gradientTransform="translate(174.821 164.008) rotate(109.872) scale(131.738 77.6764)">
<stop stop-color="#3A71FF"/>
<stop offset="1" stop-color="#657BB6" stop-opacity="0.17"/>
</radialGradient>
<linearGradient id="paint4_linear_4_27" x1="281.159" y1="67.0081" x2="130.616" y2="76.3063" gradientUnits="userSpaceOnUse">
<stop offset="0.333333"/>
<stop offset="1" stop-color="#071A4A" stop-opacity="0"/>
</linearGradient>
<linearGradient id="paint5_linear_4_27" x1="72.758" y1="261.873" x2="119.791" y2="85.9834" gradientUnits="userSpaceOnUse">
<stop stop-color="#6240EA"/>
<stop offset="0.541667" stop-color="#326BFF" stop-opacity="0"/>
</linearGradient>
</defs>
</svg>
